# xmcd
#
# Track frame offsets: 
#        187
#        50772
#        100077
#        172442
#        193750
#        231170
#        285760
#
# Disc length: 4393 seconds
#
# Revision: 10
# Processed by: cddbd v1.5.2PL0 Copyright (c) Steve Scherf et al.
# Submitted via: ExactAudioCopy v1.0b3
#
DISCID=61112707
DTITLE=Alfred Brendel - Brendel plays Beethoven - Piano Variations - (
DTITLE=3CD) - CD2
DYEAR=1992
DGENRE=Classical
TTITLE0=32 Variations on an Original Theme in C minor WoO 80
TTITLE1=7 Variations from Winter's Opera ''Das unterbrochene Opferfest
TTITLE1='' in F major WoO 75
TTITLE2=24 Variations on Righini's Air ''Venni amore'' in D major WoO 
TTITLE2=65
TTITLE3=6 Variations on the Duet from Paisello's ''La Molinara'' in G 
TTITLE3=major WoO 70
TTITLE4=8 Variations on Sssmayr's Theme ''Tndeln und Scherzen'' in F m
TTITLE4=ajor WoO 76
TTITLE5=13 Variations on Dittersdorf's Air ''Es war einmal ein alter M
TTITLE5=ann'' in A major WoO 66
TTITLE6=10 Variations on Salieri's Air ''La stessa, la stessissima'' i
TTITLE6=n B flat major WoO 73
EXTD=Alfred Brendel, Klavier. Recorded between 1961 and 1964. Brillian
EXTD=t Classics YEAR: 1961
EXTT0=
EXTT1=
EXTT2=
EXTT3=
EXTT4=
EXTT5=
EXTT6=
PLAYORDER=
